<svg width="80" height="16" viewBox="0 0 80 16" fill="none" xmlns="http://www.w3.org/2000/svg">
<path d="M40 3.081C38.398 3.081 38.208 3.087 37.5755 3.116C36.8925 3.147 36.259 3.284 35.7715 3.7715C35.284 4.259 35.147 4.8925 35.116 5.5755C35.087 6.208 35.081 6.398 35.081 8C35.081 9.602 35.087 9.792 35.116 10.4245C35.147 11.1075 35.284 11.741 35.7715 12.2285C36.259 12.716 36.8925 12.853 37.5755 12.884C38.208 12.913 38.398 12.919 40 12.919C41.602 12.919 41.792 12.913 42.4245 12.884C43.1075 12.853 43.741 12.716 44.2285 12.2285C44.716 11.741 44.853 11.1075 44.884 10.4245C44.913 9.792 44.919 9.602 44.919 8C44.919 6.398 44.913 6.208 44.884 5.5755C44.853 4.8925 44.716 4.259 44.2285 3.7715C43.741 3.284 43.1075 3.147 42.4245 3.116C41.792 3.087 41.602 3.081 40 3.081ZM40 2C41.6295 2 41.834 2.007 42.474 2.036C43.449 2.0805 44.3055 2.3195 44.993 3.007C45.6805 3.6945 45.9195 4.551 45.964 5.526C45.993 6.166 46 6.3705 46 8C46 9.6295 45.993 9.834 45.964 10.474C45.9195 11.449 45.6805 12.3055 44.993 12.993C44.3055 13.6805 43.449 13.9195 42.474 13.964C41.834 13.993 41.6295 14 40 14C38.3705 14 38.166 13.993 37.526 13.964C36.551 13.9195 35.6945 13.6805 35.007 12.993C34.3195 12.3055 34.0805 11.449 34.036 10.474C34.007 9.834 34 9.6295 34 8C34 6.3705 34.007 6.166 34.036 5.526C34.0805 4.551 34.3195 3.6945 35.007 3.007C35.6945 2.3195 36.551 2.0805 37.526 2.036C38.166 2.007 38.3705 2 40 2ZM40 4.919C41.7015 4.919 43.081 6.2985 43.081 8C43.081 9.7015 41.7015 11.081 40 11.081C38.2985 11.081 36.919 9.7015 36.919 8C36.919 6.2985 38.2985 4.919 40 4.919ZM40 10C41.1045 10 42 9.1045 42 8C42 6.8955 41.1045 6 40 6C38.8955 6 38 6.8955 38 8C38 9.1045 38.8955 10 40 10ZM43.203 5.517C42.8054 5.517 42.483 5.19465 42.483 4.797C42.483 4.39935 42.8054 4.077 43.203 4.077C43.6006 4.077 43.923 4.39935 43.923 4.797C43.923 5.19465 43.6006 5.517 43.203 5.517Z" fill="#8F8F8F"/>
<path d="M13 2H3C2.4475 2 2 2.4475 2 3V13C2 13.5525 2.4475 14 3 14H8.5V9.5H7V7.5H8.5V6.2065C8.5 4.6565 9.4465 3.8125 10.8295 3.8125C11.492 3.8125 12.061 3.862 12.227 3.884V5.504L11.268 5.5045C10.516 5.5045 10.3705 5.862 10.3705 6.386V7.5H12.5905L12.0905 9.5H10.3705V14H13C13.5525 14 14 13.5525 14 13V3C14 2.4475 13.5525 2 13 2Z" fill="#8F8F8F"/>
<path d="M67.1518 6.19201C67.3036 6.29912 67.7611 6.61726 68.5245 7.14626C69.2879 7.67525 69.8727 8.08257 70.279 8.36822C70.3236 8.39953 70.4185 8.4676 70.5635 8.57251C70.7086 8.67749 70.8292 8.76233 70.9251 8.82704C71.0211 8.89173 71.1371 8.9643 71.2734 9.04463C71.4096 9.12489 71.5379 9.18526 71.6585 9.22523C71.779 9.26552 71.8906 9.28548 71.9933 9.28548H72H72.0068C72.1094 9.28548 72.2211 9.2655 72.3416 9.22523C72.4621 9.18526 72.5906 9.12482 72.7266 9.04463C72.8628 8.9642 72.9788 8.8917 73.0748 8.82704C73.1708 8.76233 73.2913 8.67749 73.4364 8.57251C73.5815 8.4675 73.6764 8.39953 73.7211 8.36822C74.1317 8.08257 75.1764 7.35709 76.8549 6.19187C77.1808 5.96429 77.4531 5.68968 77.6718 5.36823C77.8907 5.04693 78 4.70986 78 4.35722C78 4.06254 77.8939 3.81028 77.6818 3.60048C77.4698 3.39063 77.2186 3.28577 76.9285 3.28577H67.0714C66.7277 3.28577 66.4631 3.40182 66.2779 3.63393C66.0926 3.86608 66 4.15626 66 4.50445C66 4.78569 66.1228 5.09046 66.3683 5.41857C66.6138 5.7467 66.875 6.00453 67.1518 6.19201Z" fill="#8F8F8F"/>
<path d="M77.3303 6.90849C75.8661 7.89947 74.7544 8.66963 73.9955 9.2188C73.7411 9.40622 73.5347 9.55253 73.3761 9.65738C73.2176 9.76229 73.0068 9.86943 72.7433 9.97875C72.48 10.0882 72.2346 10.1428 72.0068 10.1428H72H71.9933C71.7656 10.1428 71.52 10.0882 71.2567 9.97875C70.9933 9.86943 70.7824 9.76229 70.6239 9.65738C70.4654 9.55253 70.259 9.40622 70.0045 9.2188C69.4018 8.77687 68.2925 8.00666 66.6764 6.90849C66.4219 6.73896 66.1964 6.54464 66 6.32593V11.6427C66 11.9376 66.1049 12.1897 66.3147 12.3995C66.5245 12.6094 66.7768 12.7143 67.0715 12.7143H76.9286C77.2232 12.7143 77.4755 12.6094 77.6853 12.3995C77.8952 12.1896 78 11.9376 78 11.6427V6.32593C77.808 6.54012 77.5849 6.73444 77.3303 6.90849Z" fill="#8F8F8F"/>
</svg>
